<?xml version="1.0" standalone="no"?>
<!DOCTYPE svg PUBLIC "-//W3C//DTD SVG 20010904//EN"
 "http://www.w3.org/TR/2001/REC-SVG-20010904/DTD/svg10.dtd">
<svg version="1.0" xmlns="http://www.w3.org/2000/svg"
 width="236.000000pt" height="243.000000pt" viewBox="0 0 236.000000 243.000000"
 preserveAspectRatio="xMidYMid meet">

<g transform="translate(0.000000,243.000000) scale(0.100000,-0.100000)"
fill="#FFFFFF" stroke="none">
<path d="M1160 2235 l0 -115 35 0 35 0 0 115 0 115 -35 0 -35 0 0 -115z"/>
<path d="M1009 2223 c-4 -106 -6 -98 31 -98 l35 0 3 73 3 72 -36 0 c-35 0 -35
0 -36 -47z"/>
<path d="M1310 2160 c0 -39 1 -40 35 -40 34 0 35 1 35 40 0 39 -1 40 -35 40
-34 0 -35 -1 -35 -40z"/>
<path d="M472 1893 l3 -148 35 0 35 0 3 148 3 147 -41 0 -41 0 3 -147z"/>
<path d="M790 2005 l-34 -35 434 0 434 0 -34 35 -34 35 -366 0 -366 0 -34 -35z"/>
<path d="M322 1818 l3 -73 33 -3 32 -3 0 75 0 76 -35 0 -36 0 3 -72z"/>
<path d="M702 1413 l3 -477 45 -13 c25 -8 91 -17 148 -20 l102 -6 0 -34 0 -33
340 0 340 0 0 530 0 530 -490 0 -490 0 2 -477z m268 292 l0 -75 -80 0 -80 0 0
75 0 75 80 0 80 0 0 -75z m300 0 l0 -75 -75 0 -75 0 0 75 0 75 75 0 75 0 0
-75z m300 0 l0 -75 -75 0 -75 0 0 75 0 75 75 0 75 0 0 -75z m-602 -307 l3 -78
-81 0 -80 0 0 80 0 81 78 -3 77 -3 3 -77z m302 2 l0 -80 -75 0 -75 0 0 80 0
80 75 0 75 0 0 -80z m300 0 l0 -80 -75 0 -75 0 0 80 0 80 75 0 75 0 0 -80z
m-600 -305 l0 -75 -80 0 -80 0 0 75 0 75 80 0 80 0 0 -75z m300 0 l0 -75 -75
0 -75 0 0 75 0 75 75 0 75 0 0 -75z m300 0 l0 -75 -75 0 -75 0 0 75 0 75 75 0
75 0 0 -75z"/>
<path d="M1990 1740 l0 -150 35 0 35 0 0 150 0 150 -35 0 -35 0 0 -150z"/>
<path d="M1840 1665 l0 -75 35 0 35 0 0 75 0 75 -35 0 -35 0 0 -75z"/>
<path d="M250 1290 c0 -333 2 -370 16 -370 32 0 143 61 193 106 l52 47 37 -35
c79 -74 72 -102 72 281 l0 341 -185 0 -185 0 0 -370z m260 185 l0 -75 -75 0
-75 0 0 75 0 75 75 0 75 0 0 -75z m0 -305 l0 -80 -75 0 -75 0 0 80 0 80 75 0
75 0 0 -80z"/>
<path d="M1760 1170 l0 -340 158 0 c86 0 172 -4 190 -9 l32 -10 0 350 0 349
-190 0 -190 0 0 -340z m270 155 l0 -75 -80 0 -80 0 0 75 0 75 80 0 80 0 0 -75z
m0 -305 l0 -80 -80 0 -80 0 0 73 c0 41 3 77 7 80 3 4 39 7 80 7 l73 0 0 -80z"/>
<path d="M447 918 c-80 -55 -155 -80 -260 -86 l-87 -4 0 -154 c0 -135 3 -162
25 -232 30 -96 102 -202 176 -261 62 -50 173 -104 211 -104 52 0 175 70 246
142 125 124 162 230 162 459 l0 152 -71 0 c-89 0 -200 36 -282 91 -33 21 -60
39 -61 38 0 -1 -27 -19 -59 -41z m110 -78 c49 -31 186 -80 226 -80 12 0 33 -3
46 -7 23 -6 23 -6 19 -132 -4 -99 -10 -137 -27 -180 -46 -113 -132 -208 -236
-261 -75 -38 -97 -36 -182 19 -71 46 -117 91 -159 156 -53 83 -67 137 -72 271
-4 120 -4 121 20 127 12 4 33 7 45 7 40 0 177 49 223 79 25 16 46 30 47 30 1
1 24 -13 50 -29z"/>
<path d="M422 730 c-40 -18 -71 -28 -146 -44 l-28 -7 4 -88 c3 -74 9 -99 36
-153 33 -67 97 -140 151 -171 l31 -18 0 250 c0 138 -1 251 -2 251 -2 0 -22 -9
-46 -20z"/>
<path d="M550 499 l0 -250 31 18 c48 28 124 117 155 180 22 45 29 74 32 144
l4 88 -28 7 c-78 17 -112 28 -146 45 -20 10 -40 19 -43 19 -3 0 -5 -113 -5
-251z"/>
<path d="M1003 634 c-4 -154 -36 -270 -103 -369 -11 -16 -20 -33 -20 -37 0
-13 1142 -10 1200 3 72 15 137 64 174 129 27 48 31 64 30 125 -1 84 -33 156
-91 204 -74 61 -74 61 -657 61 l-531 0 -2 -116z m320 -186 l-127 -128 -35 33
c-70 65 -72 69 -49 95 26 27 36 28 63 2 l21 -20 99 100 99 100 28 -27 28 -27
-127 -128z m340 0 l-128 -128 -52 52 -53 52 22 23 c26 28 36 29 63 3 l21 -20
99 100 99 100 28 -27 28 -27 -127 -128z m340 0 l-128 -128 -52 52 -53 52 22
23 c26 28 36 29 63 3 l21 -20 99 100 99 100 28 -27 28 -27 -127 -128z"/>
</g>
</svg>
