<?xml version="1.0" standalone="no"?>
<!DOCTYPE svg PUBLIC "-//W3C//DTD SVG 20010904//EN"
 "http://www.w3.org/TR/2001/REC-SVG-20010904/DTD/svg10.dtd">
<svg version="1.0" xmlns="http://www.w3.org/2000/svg"
 width="308.000000pt" height="289.000000pt" viewBox="0 0 308.000000 289.000000"
 preserveAspectRatio="xMidYMid meet">

<g transform="translate(0.000000,289.000000) scale(0.100000,-0.100000)"
fill="#FFFFFF" stroke="none">
<path d="M1413 2435 c-52 -26 -96 -77 -106 -125 -7 -31 1 -46 28 -52 17 -3 20
-10 17 -55 -5 -67 10 -112 51 -151 125 -120 316 -26 305 152 -3 46 -1 51 20
54 43 6 24 88 -35 144 -67 64 -189 78 -280 33z m148 -21 c17 -21 0 -49 -31
-49 -31 0 -48 28 -31 49 8 9 21 16 31 16 10 0 23 -7 31 -16z m117 -97 c17 -10
32 -24 32 -32 0 -19 0 -19 -41 3 -49 25 -240 25 -286 -1 -28 -15 -33 -15 -33
-3 0 16 25 33 69 47 46 15 222 5 259 -14z"/>
<path d="M890 2245 c-90 -41 -143 -143 -85 -165 23 -9 24 -13 19 -53 -16 -113
95 -212 199 -178 82 27 120 82 118 173 0 50 2 58 18 58 52 0 18 102 -50 147
-35 23 -55 28 -113 31 -48 1 -82 -3 -106 -13z m120 -26 c14 -26 -4 -51 -34
-47 -24 4 -33 33 -16 53 17 21 37 19 50 -6z m95 -83 c19 -8 35 -22 35 -30 0
-13 -5 -13 -37 1 -26 11 -66 17 -123 17 -57 0 -97 -6 -122 -17 -49 -21 -54 3
-5 27 42 21 203 22 252 2z"/>
<path d="M1980 2244 c-46 -20 -68 -41 -92 -87 -22 -44 -16 -77 14 -77 18 0 20
-4 15 -40 -25 -190 221 -274 304 -104 16 35 20 56 15 90 -5 41 -4 45 19 54 27
10 30 24 14 67 -26 70 -100 113 -194 112 -33 0 -76 -7 -95 -15z m124 -26 c8
-14 7 -21 -6 -34 -30 -30 -75 9 -48 42 16 18 39 15 54 -8z m118 -95 c29 -30
19 -37 -23 -16 -46 24 -200 24 -246 1 -33 -17 -54 -9 -30 10 30 25 68 32 169
29 96 -2 110 -5 130 -24z"/>
<path d="M421 2080 c-59 -14 -113 -67 -127 -122 -5 -23 -2 -29 19 -37 22 -9
24 -14 20 -54 -9 -80 45 -147 125 -155 97 -9 156 44 159 142 1 52 4 61 23 68
54 20 -23 134 -106 157 -44 12 -64 12 -113 1z m83 -37 c8 -21 -17 -48 -38 -40
-9 4 -16 18 -16 32 0 20 5 25 24 25 13 0 27 -8 30 -17z m89 -74 c15 -7 27 -18
27 -25 0 -10 -7 -10 -35 2 -20 8 -67 14 -110 14 -43 0 -90 -6 -110 -14 -19 -8
-35 -11 -35 -7 0 14 28 33 63 42 43 11 165 4 200 -12z"/>
<path d="M2528 2080 c-49 -15 -96 -50 -112 -84 -21 -45 -20 -67 4 -73 17 -5
20 -14 20 -62 0 -92 55 -151 141 -151 88 0 155 73 145 158 -5 39 -3 44 19 52
28 11 30 17 14 57 -17 45 -60 82 -113 98 -55 16 -77 17 -118 5z m80 -48 c4
-28 -24 -40 -45 -19 -21 21 -9 49 19 45 15 -2 24 -11 26 -26z m98 -67 c36 -23
29 -34 -13 -19 -51 18 -175 18 -218 0 -29 -12 -35 -13 -35 -2 0 13 30 29 75
40 39 10 166 -2 191 -19z"/>
<path d="M1325 1935 c-23 -8 -58 -33 -81 -58 -79 -88 -114 -236 -114 -491 0
-185 7 -206 64 -206 54 0 61 18 58 140 -4 128 12 293 36 375 17 59 17 49 22
-567 l5 -628 27 -27 c39 -38 97 -38 136 0 l27 27 3 385 c3 375 3 385 22 385
20 0 20 -9 20 -379 l0 -379 25 -30 c47 -56 118 -51 155 10 19 32 20 51 20 643
1 418 4 605 11 593 24 -42 41 -179 42 -344 2 -190 6 -204 63 -204 25 0 38 7
50 25 25 38 15 378 -14 487 -39 143 -98 225 -179 247 -70 20 -73 18 -73 -46 0
-57 -20 -114 -53 -158 -15 -20 -15 -20 -21 5 -2 14 -8 42 -11 63 -5 33 -9 37
-35 37 -31 0 -32 -1 -45 -83 -7 -46 -18 -41 -50 23 -18 36 -25 65 -25 110 0
56 -2 60 -22 60 -13 -1 -41 -7 -63 -15z"/>
<path d="M1495 1920 c-8 -38 0 -50 35 -50 35 0 43 12 35 50 -5 25 -12 30 -35
30 -23 0 -30 -5 -35 -30z"/>
<path d="M784 1781 c-112 -51 -169 -235 -162 -521 3 -117 5 -133 22 -146 25
-17 47 -18 70 -1 16 12 18 33 21 183 2 165 22 305 46 319 5 4 9 -216 9 -558 0
-638 -4 -603 77 -614 35 -5 45 -2 67 20 l26 26 0 351 c0 341 0 350 20 350 19
0 19 -10 22 -351 l3 -351 28 -24 c36 -31 78 -31 114 0 l28 24 3 330 3 330 -25
6 c-48 12 -57 49 -56 244 0 140 4 197 21 272 28 130 28 125 -3 128 -28 3 -28
3 -28 -53 0 -43 -7 -70 -26 -106 -28 -51 -44 -55 -44 -11 0 53 -11 72 -40 72
-25 0 -27 -4 -36 -57 l-9 -58 -30 50 c-24 40 -30 61 -30 108 0 54 -1 57 -25
57 -14 0 -44 -9 -66 -19z"/>
<path d="M955 1788 c-14 -41 -10 -53 19 -56 36 -4 49 8 40 42 -4 19 -13 26
-30 26 -14 0 -27 -6 -29 -12z"/>
<path d="M1910 1792 c0 -5 6 -31 14 -58 26 -88 36 -190 36 -358 0 -162 0 -165
-26 -195 -14 -17 -32 -31 -40 -31 -12 0 -14 -52 -14 -326 l0 -326 29 -29 c37
-36 79 -38 118 -5 l28 24 3 351 c2 300 5 351 17 351 13 0 15 -47 15 -332 0
-297 2 -337 18 -368 31 -62 123 -64 151 -4 8 18 11 188 11 575 0 333 4 548 9
544 23 -14 43 -154 45 -313 1 -149 3 -165 21 -178 27 -20 42 -18 70 11 24 23
25 30 25 142 0 291 -55 465 -163 514 -23 10 -53 19 -67 19 -24 0 -25 -3 -25
-58 0 -45 -6 -68 -30 -107 -28 -48 -29 -49 -36 -25 -4 14 -7 40 -8 58 -1 31
-3 33 -33 30 -31 -3 -33 -6 -38 -50 -3 -26 -8 -50 -11 -53 -3 -3 -18 18 -34
46 -21 39 -27 65 -27 105 0 53 0 54 -29 54 -16 0 -29 -4 -29 -8z"/>
<path d="M2044 1776 c-8 -33 2 -46 35 -46 37 0 41 6 29 41 -13 38 -55 41 -64
5z"/>
<path d="M250 1612 c-49 -51 -72 -106 -90 -217 -13 -79 -13 -311 0 -336 12
-22 62 -26 78 -6 5 6 12 86 15 177 4 122 10 179 24 220 l18 55 5 -511 c5 -486
6 -513 24 -533 24 -27 76 -28 107 -2 l24 19 3 316 c2 265 5 316 17 316 12 0
15 -51 17 -316 l3 -316 24 -19 c32 -26 82 -25 109 4 22 23 22 29 22 320 0 282
-1 297 -19 307 -36 19 -44 72 -38 249 5 145 19 243 42 304 6 14 1 17 -27 17
-34 0 -34 0 -34 -48 0 -31 -8 -62 -24 -90 -27 -49 -40 -53 -40 -14 0 50 -11
72 -35 72 -21 0 -25 -7 -32 -52 l-8 -53 -25 34 c-17 24 -25 52 -28 93 l-4 58
-41 0 c-35 0 -47 -6 -87 -48z"/>
<path d="M447 1638 c-9 -32 21 -48 52 -29 8 5 11 16 6 30 -9 29 -51 29 -58 -1z"/>
<path d="M2420 1657 c0 -2 9 -39 20 -83 23 -89 37 -307 26 -398 -6 -43 -14
-65 -32 -81 l-24 -22 0 -295 0 -295 23 -21 c25 -23 66 -28 97 -12 35 19 40 64
40 366 0 255 2 294 15 294 13 0 15 -41 15 -310 l0 -311 25 -24 c32 -33 78 -33
110 0 l25 24 1 508 c1 433 3 504 14 478 20 -46 35 -173 35 -299 0 -74 4 -116
12 -124 19 -19 66 -15 78 7 14 28 12 262 -4 351 -28 154 -95 250 -176 250
l-40 0 0 -45 c0 -43 -28 -116 -49 -129 -5 -3 -12 17 -16 45 -7 47 -9 50 -34
47 -23 -3 -26 -8 -29 -43 -5 -62 -17 -62 -47 -1 -19 39 -26 67 -23 91 4 34 3
35 -29 35 -18 0 -33 -2 -33 -3z"/>
<path d="M2554 1645 c-9 -22 3 -45 23 -45 29 0 43 14 36 38 -6 26 -50 31 -59
7z"/>
<path d="M1250 1165 l-25 -27 25 -20 25 -20 3 26 c2 14 2 36 0 47 -3 20 -4 20
-28 -6z"/>
<path d="M1780 1145 c0 -42 2 -45 19 -36 30 16 31 37 5 60 l-24 21 0 -45z"/>
<path d="M739 1100 c-9 -9 -23 -20 -30 -22 -20 -7 7 -38 32 -38 15 0 19 8 19
40 0 22 -1 40 -2 39 -2 0 -10 -9 -19 -19z"/>
<path d="M2300 1077 c0 -30 4 -37 20 -37 10 0 24 9 30 20 8 15 8 20 -1 20 -7
0 -21 7 -31 17 -17 15 -18 14 -18 -20z"/>
</g>
</svg>
