<?xml version="1.0" standalone="no"?>
<!DOCTYPE svg PUBLIC "-//W3C//DTD SVG 20010904//EN"
 "http://www.w3.org/TR/2001/REC-SVG-20010904/DTD/svg10.dtd">
<svg version="1.0" xmlns="http://www.w3.org/2000/svg"
 width="280.000000pt" height="228.000000pt" viewBox="0 0 280.000000 228.000000"
 preserveAspectRatio="xMidYMid meet">

<g transform="translate(0.000000,228.000000) scale(0.100000,-0.100000)"
fill="#FFFFFF" stroke="none">
<path d="M760 1967 c-74 -130 -75 -133 -75 -203 0 -66 3 -75 31 -111 l32 -39
-40 -69 c-32 -57 -38 -77 -34 -108 6 -52 32 -77 148 -144 54 -31 98 -59 98
-62 0 -3 -11 -28 -25 -54 -27 -54 -25 -93 6 -139 19 -26 19 -27 -6 -70 -30
-52 -32 -92 -5 -136 33 -53 26 -94 -30 -191 -63 -109 -77 -116 -223 -105 -56
4 -105 9 -109 10 -5 1 -15 2 -23 3 -12 1 -15 15 -15 61 0 66 -18 113 -50 130
-23 12 -134 20 -150 10 -7 -4 -9 -90 -8 -271 l3 -264 57 -3 c103 -5 148 39
148 144 l0 56 98 -7 c133 -9 150 -13 175 -35 14 -14 35 -20 65 -20 61 0 102
40 102 102 0 33 11 63 47 125 52 93 86 120 151 120 52 0 84 21 113 73 21 38
25 40 69 40 56 0 91 24 121 81 l20 39 42 -24 c23 -14 73 -43 112 -65 79 -46
128 -53 167 -22 l24 19 109 -64 c60 -35 117 -64 126 -64 10 0 21 9 24 20 4 14
15 20 35 20 119 0 199 134 146 241 -9 18 -14 35 -11 37 3 3 27 -5 53 -17 l49
-23 132 42 c106 33 132 45 129 58 -4 19 13 9 -996 593 -397 231 -730 419 -740
419 -11 0 -41 -43 -92 -133z m680 -249 c294 -171 656 -380 803 -466 172 -99
264 -158 255 -162 -7 -4 -48 -18 -90 -30 l-77 -23 -68 29 c-60 26 -79 29 -173
29 -91 0 -111 -3 -150 -24 -25 -13 -52 -29 -60 -36 -13 -12 -95 33 -550 296
-294 170 -549 322 -567 339 -38 35 -50 86 -34 138 6 21 38 83 71 140 57 97 62
102 83 91 12 -7 263 -151 557 -321z m-224 -371 c231 -134 461 -267 512 -296
51 -30 95 -58 98 -63 7 -12 -63 -126 -86 -138 -10 -6 -27 -10 -37 -9 -10 0
-232 125 -493 277 -367 214 -478 283 -488 304 -12 26 -10 34 24 98 20 38 40
70 44 70 5 0 196 -109 426 -243z m-11 -275 c110 -63 202 -116 203 -118 2 -1 1
-12 -3 -23 -10 -33 -61 -81 -86 -81 -23 0 -323 168 -371 208 -34 29 -36 60 -6
113 19 34 24 37 42 27 12 -6 111 -63 221 -126z m877 -44 c-11 -18 -38 -67 -62
-108 -23 -41 -49 -85 -56 -97 l-14 -22 -64 37 -65 37 27 49 c15 26 42 60 60
74 39 29 124 61 165 62 l29 0 -20 -32z m98 16 c0 -3 -36 -68 -80 -144 -59
-102 -85 -137 -96 -133 -18 7 -23 -4 66 152 51 90 80 131 92 131 10 0 18 -3
18 -6z m-1077 -132 l128 -74 -22 -36 c-28 -47 -47 -62 -76 -62 -19 0 -23 4
-19 23 6 36 -22 84 -61 102 -33 16 -39 16 -76 1 -23 -9 -44 -13 -48 -8 -7 7
-12 37 -10 57 2 18 41 77 49 73 4 -2 65 -36 135 -76z m1107 3 c0 -16 -9 -44
-20 -62 -19 -31 -72 -67 -90 -61 -5 2 14 43 42 91 52 91 68 98 68 32z m-1158
-102 c35 -32 10 -103 -38 -103 -29 0 -64 32 -64 60 0 26 34 60 62 60 12 0 30
-7 40 -17z m-623 -129 c20 -25 21 -38 19 -210 -3 -201 -6 -212 -63 -215 -70
-4 -65 -23 -65 226 l0 225 44 0 c36 0 48 -5 65 -26z m524 -63 c-52 -89 -56
-94 -75 -79 -15 12 -14 19 23 81 35 59 42 66 60 57 18 -10 18 -12 -8 -59z
m-83 -131 c11 -11 20 -29 20 -40 0 -26 -34 -60 -62 -60 -50 0 -76 63 -41 102
21 24 58 23 83 -2z m-164 -7 c16 -3 20 -10 16 -25 -4 -19 -10 -19 -95 -13 -49
4 -97 9 -106 10 -9 2 -19 4 -23 4 -5 1 -8 11 -8 22 0 21 3 21 98 14 53 -3 107
-9 118 -12z"/>
<path d="M885 1896 c-29 -29 -75 -118 -75 -146 0 -30 53 -80 85 -80 42 0 62
16 100 84 43 77 44 99 6 137 -37 37 -82 39 -116 5z m95 -57 c0 -26 -33 -89
-58 -112 -16 -15 -24 -16 -41 -7 -12 6 -21 20 -21 31 0 29 36 95 61 113 27 19
59 5 59 -25z"/>
<path d="M1076 1777 c-45 -48 -78 -120 -70 -151 14 -56 85 -83 131 -51 30 21
83 117 83 149 0 36 -50 86 -86 86 -17 0 -37 -11 -58 -33z m95 -39 c8 -15 3
-30 -22 -74 -34 -60 -52 -73 -78 -57 -26 16 -24 48 4 95 44 70 72 81 96 36z"/>
<path d="M1298 1688 c-34 -12 -98 -114 -98 -155 0 -45 34 -83 75 -83 51 0 62
8 100 70 41 67 46 119 15 150 -11 11 -24 20 -29 20 -5 0 -15 2 -23 4 -7 3 -25
0 -40 -6z m60 -50 c19 -19 14 -40 -21 -93 -38 -59 -70 -70 -88 -31 -10 20 -8
31 11 63 44 73 70 89 98 61z"/>
</g>
</svg>
