<?xml version="1.0" standalone="no"?>
<!DOCTYPE svg PUBLIC "-//W3C//DTD SVG 20010904//EN"
 "http://www.w3.org/TR/2001/REC-SVG-20010904/DTD/svg10.dtd">
<svg version="1.0" xmlns="http://www.w3.org/2000/svg"
 width="258.000000pt" height="252.000000pt" viewBox="0 0 258.000000 252.000000"
 preserveAspectRatio="xMidYMid meet">

<g transform="translate(0.000000,252.000000) scale(0.100000,-0.100000)"
fill="#FFFFFF" stroke="none">
<path d="M1416 2233 c-3 -3 -6 -48 -6 -100 l0 -93 -110 0 -110 0 0 61 0 61
-47 -7 c-140 -19 -339 -114 -453 -215 l-55 -49 43 -44 43 -44 -57 -76 -58 -75
-44 30 c-57 39 -67 33 -110 -64 -60 -140 -75 -217 -76 -378 0 -171 19 -260 88
-405 40 -84 128 -215 145 -215 21 0 17 17 -14 58 -19 25 -35 48 -35 52 0 3 14
19 31 36 l30 29 36 -45 c102 -126 303 -272 303 -220 0 5 -15 17 -32 26 -120
60 -258 204 -322 336 -75 153 -100 362 -62 521 63 266 258 476 526 567 82 28
288 39 382 20 238 -46 457 -220 558 -444 49 -108 64 -179 64 -316 1 -149 -14
-215 -78 -345 -122 -246 -359 -408 -633 -432 l-73 -6 0 -119 c0 -91 3 -119 13
-116 6 3 13 23 15 45 l3 40 77 6 c156 13 347 88 466 184 98 80 93 77 105 55 9
-17 1 -27 -66 -80 -42 -34 -110 -78 -150 -99 -78 -39 -89 -48 -74 -58 12 -7
116 44 181 88 68 46 150 118 150 131 0 7 -26 44 -59 82 l-58 70 22 28 22 27
77 -82 c51 -55 80 -79 86 -73 7 7 -8 31 -45 71 l-55 61 46 75 c25 42 43 80 39
86 -10 17 -23 4 -49 -47 -13 -26 -33 -58 -44 -72 -18 -22 -21 -23 -27 -8 -4
11 7 39 30 77 20 32 49 94 64 137 15 44 29 81 31 83 3 2 29 -4 58 -13 29 -10
55 -16 58 -14 15 16 26 140 21 253 -4 101 -11 150 -31 220 -50 165 -145 317
-272 434 l-66 60 26 31 c47 56 25 72 -23 18 -30 -33 -30 -33 -58 -15 -87 55
-219 107 -335 132 -24 5 -28 10 -28 40 0 33 -11 51 -24 38z m-256 -151 l0 -48
-76 -22 c-102 -30 -188 -73 -272 -137 l-70 -53 -34 35 -33 34 35 30 c101 85
238 157 360 188 41 11 78 20 83 20 4 1 7 -21 7 -47z m410 16 c314 -100 549
-360 617 -683 15 -72 16 -336 1 -351 -5 -4 -25 -2 -46 4 l-39 12 1 137 c1 156
-14 229 -70 351 -102 222 -292 384 -526 447 l-68 18 0 49 0 50 33 -7 c17 -3
61 -16 97 -27z m-1002 -456 l23 -18 -30 -71 c-88 -215 -84 -455 13 -659 l34
-72 -34 -33 c-40 -39 -38 -41 -89 67 -63 131 -79 210 -80 379 0 170 13 237 72
367 38 83 38 83 91 40z m1337 -1017 l27 -34 -38 -33 c-136 -120 -323 -201
-496 -215 l-78 -6 0 45 0 46 83 12 c156 22 293 81 407 174 30 25 58 45 62 46
4 0 19 -16 33 -35z"/>
<path d="M949 2176 c-85 -32 -222 -106 -235 -127 -13 -22 9 -23 44 -1 74 45
188 100 245 118 31 10 57 24 57 31 0 19 -15 16 -111 -21z"/>
<path d="M1181 1909 c-166 -46 -376 -145 -399 -189 -9 -19 -12 -110 -10 -390
l3 -365 33 -69 c62 -131 231 -272 421 -351 74 -31 81 -30 197 24 169 80 308
200 367 320 l32 66 3 375 c3 367 2 377 -18 402 -26 34 -198 117 -325 158 -128
41 -207 46 -304 19z m463 -312 c74 -41 81 -66 81 -277 0 -167 -2 -188 -20
-219 -36 -61 -66 -75 -167 -81 -61 -3 -93 -9 -96 -17 -2 -8 6 -13 20 -13 34 0
65 -26 73 -60 13 -59 6 -61 -239 -58 l-221 3 -3 37 c-4 46 24 78 68 78 20 0
30 5 30 15 0 12 -17 15 -94 15 -80 0 -98 3 -127 23 -62 41 -69 69 -69 278 0
177 1 188 23 220 12 18 38 44 56 56 34 23 38 23 340 23 298 0 307 -1 345 -23z"/>
<path d="M1006 1580 c-15 -5 -37 -17 -48 -27 -40 -35 -48 -74 -48 -240 0 -130
3 -164 18 -193 26 -53 70 -70 180 -70 l93 0 -3 -47 -3 -48 -40 -3 c-36 -3 -54
-15 -55 -34 0 -5 90 -8 201 -8 186 0 200 1 197 18 -2 12 -16 19 -43 22 -40 5
-40 5 -43 53 l-3 47 93 0 c75 0 99 4 125 20 56 34 63 60 63 245 0 278 12 269
-375 272 -154 1 -293 -2 -309 -7z m614 -265 l0 -185 -317 2 -318 3 -3 183 -2
182 320 0 320 0 0 -185z"/>
<path d="M382 1638 c-45 -109 -66 -188 -53 -201 7 -7 12 -6 15 4 2 8 14 44 25
82 12 37 32 92 46 123 29 66 29 64 11 64 -8 0 -27 -31 -44 -72z"/>
<path d="M307 1363 c-10 -10 -8 -131 2 -137 14 -9 21 20 21 85 0 55 -7 69 -23
52z"/>
<path d="M810 456 c0 -43 371 -169 403 -137 12 12 12 12 -115 41 -59 13 -132
38 -188 66 -50 24 -93 44 -96 44 -2 0 -4 -6 -4 -14z"/>
<path d="M962 450 c5 -17 129 -59 180 -63 67 -4 45 15 -47 39 -145 39 -138 38
-133 24z"/>
</g>
</svg>
