<?xml version="1.0" standalone="no"?>
<!DOCTYPE svg PUBLIC "-//W3C//DTD SVG 20010904//EN"
 "http://www.w3.org/TR/2001/REC-SVG-20010904/DTD/svg10.dtd">
<svg version="1.0" xmlns="http://www.w3.org/2000/svg"
 width="281.000000pt" height="229.000000pt" viewBox="0 0 281.000000 229.000000"
 preserveAspectRatio="xMidYMid meet">

<g transform="translate(0.000000,229.000000) scale(0.100000,-0.100000)"
fill="#FFFFFF" stroke="none">
<path d="M400 1885 l0 -195 323 2 322 3 0 190 0 190 -322 3 -323 2 0 -195z
m620 0 l0 -165 -300 0 -300 0 0 165 0 165 300 0 300 0 0 -165z"/>
<path d="M1070 1885 l0 -195 325 0 325 0 0 195 0 195 -325 0 -325 0 0 -195z
m630 0 l0 -165 -305 0 -305 0 0 165 0 165 305 0 305 0 0 -165z"/>
<path d="M1745 2058 c-3 -13 -4 -99 -3 -193 l3 -170 325 0 325 0 1 193 0 192
-323 0 -323 0 -5 -22z m625 -173 l0 -165 -300 0 -300 0 0 165 0 165 300 0 300
0 0 -165z"/>
<path d="M399 1666 c-2 -2 -3 -90 -1 -195 l3 -191 69 0 c56 0 70 3 70 15 0 12
-13 15 -60 15 l-60 0 0 165 0 165 300 0 300 0 0 -165 0 -165 -54 0 c-39 0 -55
-4 -60 -15 -5 -14 5 -15 67 -13 l72 3 3 193 2 192 -323 0 c-178 0 -326 -2
-328 -4z"/>
<path d="M1070 1475 l0 -195 111 0 110 0 -3 -37 c-3 -33 -7 -38 -30 -41 -16
-2 -28 -8 -28 -13 0 -5 -64 -9 -150 -9 -82 0 -150 -3 -150 -6 0 -4 14 -31 31
-60 l30 -54 404 0 404 0 30 54 c17 29 31 56 31 60 0 3 -67 6 -150 6 -93 0
-150 4 -150 10 0 6 -11 10 -25 10 -22 0 -25 4 -25 40 l0 40 105 0 105 0 0 195
0 195 -325 0 -325 0 0 -195z m630 0 l0 -165 -305 0 -305 0 0 165 0 165 305 0
305 0 0 -165z"/>
<path d="M1742 1475 l1 -195 73 0 c61 0 72 3 68 15 -5 11 -21 15 -60 15 l-54
0 0 165 0 165 300 0 300 0 0 -165 0 -165 -60 0 c-47 0 -60 -3 -60 -15 0 -13
13 -15 73 -13 l72 3 0 190 -1 190 -326 3 -327 2 1 -195z"/>
<path d="M665 1466 c-63 -27 -106 -109 -91 -171 3 -13 17 -36 30 -50 22 -24
29 -25 130 -25 l107 0 20 46 c56 125 -72 254 -196 200z"/>
<path d="M2000 1463 c-74 -38 -104 -122 -71 -197 l20 -46 107 0 c103 0 108 1
133 28 21 22 26 37 26 79 0 111 -118 186 -215 136z"/>
<path d="M228 1239 c-10 -6 -18 -22 -18 -37 1 -50 147 -613 165 -632 19 -21
47 -31 138 -50 l57 -11 0 -75 c0 -51 -4 -76 -12 -79 -7 -2 -51 -16 -98 -30
-74 -22 -87 -30 -99 -56 -14 -33 -9 -56 14 -65 25 -10 47 16 41 48 -5 26 -3
28 72 51 l77 23 3 -24 c2 -14 -1 -29 -7 -35 -28 -28 1 -74 39 -62 21 7 28 49
10 60 -5 3 -10 17 -10 31 0 30 13 30 101 2 59 -19 67 -24 58 -39 -17 -32 12
-66 46 -53 18 7 19 31 3 67 -11 22 -29 32 -110 57 l-98 31 0 69 c0 78 4 83 80
95 61 10 133 42 128 57 -3 7 -15 15 -28 18 -13 3 -27 12 -32 20 -4 8 -40 143
-79 300 -38 157 -77 295 -85 308 -14 21 -19 22 -177 22 -91 0 -170 -5 -179
-11z"/>
<path d="M2206 1228 c-8 -13 -47 -151 -85 -308 -39 -157 -75 -292 -79 -300 -5
-8 -19 -17 -32 -20 -13 -3 -25 -11 -28 -18 -5 -15 67 -47 128 -57 76 -12 80
-17 80 -95 l0 -69 -97 -31 c-82 -25 -100 -35 -110 -57 -17 -36 -16 -60 2 -67
34 -13 63 21 46 53 -9 15 -1 20 58 39 37 12 75 22 84 22 20 0 23 -31 5 -60
-16 -24 0 -55 27 -55 28 0 41 29 26 58 -7 13 -11 33 -9 43 3 20 5 19 80 -3 75
-23 77 -25 72 -51 -6 -32 16 -58 41 -48 23 9 28 32 14 65 -12 26 -25 34 -99
56 -47 14 -91 28 -97 30 -9 3 -13 28 -13 79 l0 75 58 11 c90 19 118 29 137 50
18 20 164 582 165 632 0 17 -7 31 -19 38 -11 6 -89 10 -180 10 -155 0 -161 -1
-175 -22z"/>
<path d="M632 1173 c3 -10 34 -135 69 -277 l64 -259 33 -14 c56 -23 38 -78
-35 -103 -28 -10 -31 -16 -42 -80 -6 -38 -11 -73 -11 -78 0 -5 27 -17 60 -27
46 -14 60 -23 60 -37 0 -11 4 -17 8 -14 5 3 19 68 32 146 l24 140 36 0 37 0
-23 -127 c-13 -71 -23 -140 -24 -155 0 -58 72 -89 119 -50 18 14 28 50 58 220
l36 203 -20 27 c-19 26 -25 27 -117 30 l-96 3 0 119 c0 66 2 120 5 120 2 0 12
-15 21 -32 9 -18 22 -36 28 -40 6 -4 66 -8 134 -8 121 0 123 0 134 25 9 21 8
28 -7 45 -15 16 -33 20 -113 22 l-96 3 -59 100 c-32 55 -64 103 -70 107 -7 4
-65 8 -131 8 -108 0 -118 -2 -114 -17z"/>
<path d="M1913 1182 c-6 -4 -38 -52 -70 -107 l-59 -100 -96 -3 c-80 -2 -98 -6
-113 -22 -15 -17 -16 -24 -7 -45 11 -25 13 -25 142 -25 l130 0 20 40 c11 22
23 40 25 40 3 0 5 -54 5 -120 l0 -119 -96 -3 c-92 -3 -98 -4 -117 -30 l-20
-27 36 -203 c30 -170 40 -206 58 -220 30 -25 74 -23 100 5 24 25 23 57 -10
229 l-18 98 36 0 37 0 24 -140 c23 -138 33 -169 43 -131 3 12 24 25 58 36 30
10 56 19 57 21 2 1 -2 36 -8 78 -12 70 -14 76 -43 86 -73 25 -91 80 -34 103
l32 14 64 259 c35 142 66 267 69 277 4 15 -6 17 -114 17 -66 0 -124 -4 -131
-8z"/>
<path d="M1010 1033 c1 -30 19 -35 121 -30 l105 5 12 -39 c7 -21 12 -46 12
-54 0 -13 21 -15 133 -15 l134 0 13 54 13 54 105 -5 c103 -5 121 0 122 30 0 4
-173 7 -385 7 -212 0 -385 -3 -385 -7z m300 -38 c0 -8 -9 -15 -20 -15 -11 0
-20 7 -20 15 0 8 9 15 20 15 11 0 20 -7 20 -15z m70 0 c0 -8 -9 -15 -20 -15
-11 0 -20 7 -20 15 0 8 9 15 20 15 11 0 20 -7 20 -15z m70 0 c0 -8 -9 -15 -20
-15 -11 0 -20 7 -20 15 0 8 9 15 20 15 11 0 20 -7 20 -15z m70 0 c0 -8 -9 -15
-20 -15 -11 0 -20 7 -20 15 0 8 9 15 20 15 11 0 20 -7 20 -15z m-210 -50 c0
-8 -9 -15 -20 -15 -11 0 -20 7 -20 15 0 8 9 15 20 15 11 0 20 -7 20 -15z m70
0 c0 -8 -9 -15 -20 -15 -11 0 -20 7 -20 15 0 8 9 15 20 15 11 0 20 -7 20 -15z
m70 0 c0 -8 -9 -15 -20 -15 -11 0 -20 7 -20 15 0 8 9 15 20 15 11 0 20 -7 20
-15z m70 0 c0 -8 -9 -15 -20 -15 -11 0 -20 7 -20 15 0 8 9 15 20 15 11 0 20
-7 20 -15z"/>
<path d="M193 871 c-37 -34 -43 -44 -43 -80 l0 -41 65 0 c36 0 65 3 65 8 0 18
-34 152 -39 152 -3 -1 -25 -18 -48 -39z"/>
<path d="M2527 838 c-10 -40 -17 -76 -17 -80 0 -5 29 -8 65 -8 l65 0 0 41 c0
36 -6 46 -42 80 -24 21 -46 38 -49 39 -3 0 -13 -33 -22 -72z"/>
<path d="M1230 865 c-11 -13 -37 -15 -157 -13 l-143 3 0 -52 0 -53 465 0 465
0 0 53 0 52 -143 -3 c-120 -2 -146 0 -157 13 -10 12 -39 15 -165 15 -126 0
-155 -3 -165 -15z"/>
<path d="M710 249 c7 -11 14 -18 17 -15 8 8 -5 36 -17 36 -7 0 -7 -6 0 -21z"/>
<path d="M2063 255 c-9 -25 4 -29 17 -6 7 15 7 21 0 21 -6 0 -13 -7 -17 -15z"/>
</g>
</svg>
