<?xml version="1.0" standalone="no"?>
<!DOCTYPE svg PUBLIC "-//W3C//DTD SVG 20010904//EN"
 "http://www.w3.org/TR/2001/REC-SVG-20010904/DTD/svg10.dtd">
<svg version="1.0" xmlns="http://www.w3.org/2000/svg"
 width="267.000000pt" height="245.000000pt" viewBox="0 0 267.000000 245.000000"
 preserveAspectRatio="xMidYMid meet">

<g transform="translate(0.000000,245.000000) scale(0.100000,-0.100000)"
fill="#FFFFFF" stroke="none">
<path d="M1325 2299 c-4 -6 -5 -12 -2 -15 2 -3 7 2 10 11 7 17 1 20 -8 4z"/>
<path d="M1366 2297 c3 -10 9 -15 12 -12 3 3 0 11 -7 18 -10 9 -11 8 -5 -6z"/>
<path d="M1897 2250 c6 -23 -15 -27 -37 -7 -8 6 -6 2 4 -10 15 -18 22 -20 33
-12 15 13 17 35 4 43 -5 4 -7 -3 -4 -14z"/>
<path d="M1051 2206 c5 -6 9 -54 9 -108 l0 -98 60 0 60 0 0 -50 0 -51 -157 3
-158 3 -3 89 c-2 71 0 92 14 107 20 23 12 49 -16 49 -24 0 -37 -25 -22 -43 6
-7 13 -58 14 -113 l3 -99 163 -3 162 -2 0 -90 c0 -50 3 -90 8 -90 4 0 6 40 4
90 -3 85 -2 90 17 90 19 0 21 -6 21 -79 0 -54 -4 -81 -12 -84 -7 -3 -2 -6 11
-6 17 -1 22 3 17 15 -3 9 -6 49 -6 90 0 72 -1 74 -25 74 -24 0 -25 3 -25 55
l0 55 -60 0 -60 0 0 93 c0 51 4 97 10 103 6 6 0 9 -15 9 -15 0 -20 -3 -14 -9z
m-176 -86 c0 -22 -29 -18 -33 3 -3 14 1 18 15 15 10 -2 18 -10 18 -18z"/>
<path d="M1226 2171 c-3 -5 2 -7 13 -4 14 4 21 -1 24 -19 5 -22 5 -22 4 2 -2
25 -30 40 -41 21z"/>
<path d="M1766 2165 c19 -15 19 -15 0 -30 -11 -8 -15 -15 -9 -15 6 0 16 7 23
15 10 12 10 18 0 30 -7 8 -17 15 -23 15 -6 0 -2 -7 9 -15z"/>
<path d="M950 2153 c0 -6 7 -16 15 -23 12 -10 18 -10 30 0 8 7 15 17 15 23 0
6 -7 2 -15 -9 -15 -19 -15 -19 -30 0 -8 11 -15 15 -15 9z"/>
<path d="M1228 2129 c8 -9 12 -46 12 -111 l0 -98 101 0 100 0 -3 -95 -3 -95
25 1 c17 1 19 3 8 6 -16 4 -18 17 -18 94 0 88 0 89 25 89 24 0 24 -2 28 -92
l3 -93 2 98 2 97 -29 0 c-25 0 -30 5 -34 28 l-4 27 -2 -27 -1 -28 -95 0 -95 0
0 99 c0 85 -2 100 -17 106 -15 5 -16 4 -5 -6z"/>
<path d="M1883 2075 c0 -22 2 -30 4 -17 2 12 2 30 0 40 -3 9 -5 -1 -4 -23z"/>
<path d="M1547 2083 c-3 -5 5 -8 18 -8 13 0 21 3 18 8 -2 4 -10 7 -18 7 -8 0
-16 -3 -18 -7z"/>
<path d="M1564 1940 c0 -58 1 -81 3 -52 2 28 2 76 0 105 -2 28 -3 5 -3 -53z"/>
<path d="M1634 2017 c-2 -7 -3 -89 -1 -182 l3 -170 2 177 2 177 128 4 127 3
-128 2 c-96 1 -129 -1 -133 -11z"/>
<path d="M948 1923 c6 -2 18 -2 25 0 6 3 1 5 -13 5 -14 0 -19 -2 -12 -5z"/>
<path d="M1728 1923 c6 -2 18 -2 25 0 6 3 1 5 -13 5 -14 0 -19 -2 -12 -5z"/>
<path d="M1391 1798 c-1 -43 -3 -47 -28 -51 -24 -3 -23 -4 7 -6 36 -1 36 -1
32 37 -6 62 -10 70 -11 20z"/>
<path d="M2411 1783 c-1 -10 -28 -13 -101 -13 l-100 0 0 -60 0 -60 -50 0 c-43
0 -50 -3 -50 -20 0 -19 -7 -20 -186 -20 -179 0 -186 1 -217 24 -38 28 -57 39
-57 33 0 -2 18 -17 41 -31 23 -15 66 -53 97 -84 52 -53 48 -41 -7 21 l-25 27
182 0 c175 0 182 1 182 20 0 17 7 20 44 20 26 0 46 -5 49 -12 4 -10 6 -10 6 0
1 14 82 17 97 3 6 -6 9 -1 9 14 0 15 -3 20 -9 15 -6 -6 -29 -10 -53 -10 l-43
0 0 55 0 55 90 0 c54 0 98 -5 110 -12 15 -10 22 -10 31 -1 9 9 7 11 -9 6 -16
-4 -21 1 -25 19 -2 12 -5 17 -6 11z"/>
<path d="M1268 1733 c6 -2 18 -2 25 0 6 3 1 5 -13 5 -14 0 -19 -2 -12 -5z"/>
<path d="M1498 1723 c7 -3 16 -2 19 1 4 3 -2 6 -13 5 -11 0 -14 -3 -6 -6z"/>
<path d="M1545 1710 c27 -12 43 -12 25 0 -8 5 -22 9 -30 9 -10 0 -8 -3 5 -9z"/>
<path d="M1108 1684 c-27 -13 -48 -27 -48 -29 0 -5 99 42 109 51 13 11 -20 0
-61 -22z"/>
<path d="M292 1673 c-5 -10 -7 -24 -5 -30 6 -15 39 -17 48 -3 3 6 48 10 101
10 l94 0 0 -34 c0 -19 -6 -37 -12 -39 -10 -4 -10 -6 0 -6 9 -1 12 -31 12 -115
l0 -115 -52 -4 -53 -3 53 -2 c51 -2 52 -3 52 -32 l0 -31 137 3 c123 3 138 5
139 21 2 13 1 13 -3 2 -4 -13 -24 -15 -131 -13 -124 3 -127 4 -130 26 l-4 23
141 -3 c78 -2 141 0 141 5 0 4 -63 7 -140 7 l-140 0 0 115 0 115 200 0 c182 0
222 -5 190 -25 -5 -3 -19 -20 -31 -38 -13 -19 -5 -13 20 15 23 26 63 66 89 89
26 23 33 32 16 21 -17 -12 -37 -28 -44 -37 -10 -13 -46 -15 -226 -15 l-214 0
0 40 0 40 -96 0 c-71 0 -99 4 -110 15 -20 20 -31 19 -42 -2z m38 -19 c0 -8 -7
-14 -15 -14 -15 0 -21 21 -9 33 10 9 24 -2 24 -19z"/>
<path d="M2355 1645 c0 -13 3 -21 8 -18 4 2 7 10 7 18 0 8 -3 16 -7 18 -5 3
-8 -5 -8 -18z"/>
<path d="M2212 1580 c0 -19 2 -27 5 -17 2 9 2 25 0 35 -3 9 -5 1 -5 -18z"/>
<path d="M1233 1565 c-59 -25 -73 -64 -73 -198 l0 -118 43 3 42 3 3 104 c1 58
8 111 14 118 12 14 184 19 205 5 8 -5 13 -45 15 -117 l3 -110 43 -3 42 -3 0
118 c0 135 -14 173 -75 199 -46 19 -218 18 -262 -1z"/>
<path d="M300 1548 c6 -8 5 -17 -3 -27 -10 -14 -10 -14 4 -4 9 7 57 14 115 16
l99 3 -100 2 c-56 1 -106 7 -113 12 -9 7 -9 7 -2 -2z"/>
<path d="M1850 1470 c6 -11 13 -20 16 -20 2 0 0 9 -6 20 -6 11 -13 20 -16 20
-2 0 0 -9 6 -20z"/>
<path d="M184 1465 c-3 -8 -4 -20 -1 -27 3 -7 6 -3 6 10 1 24 19 29 41 10 12
-11 12 -10 1 5 -16 21 -40 22 -47 2z"/>
<path d="M2230 1465 c-9 -11 -10 -19 -3 -26 8 -8 11 -6 10 7 -1 11 6 20 17 22
15 3 18 0 13 -18 -4 -16 -3 -20 5 -12 14 14 3 42 -15 42 -8 0 -20 -7 -27 -15z"/>
<path d="M850 1429 c-12 -23 -20 -43 -18 -45 3 -2 14 17 26 41 27 56 20 60 -8
4z"/>
<path d="M2020 1396 l0 -58 -55 4 c-30 1 -55 0 -55 -4 0 -5 25 -8 55 -8 48 0
55 -2 55 -20 0 -17 -7 -20 -44 -20 -27 0 -46 5 -49 13 -2 7 -3 6 -3 -3 1 -11
16 -16 54 -18 50 -3 52 -2 52 22 0 24 4 26 40 26 l39 0 4 -102 3 -103 2 102 2
102 28 4 27 4 -27 2 c-21 1 -28 7 -31 29 l-4 27 -2 -27 c-1 -26 -4 -28 -40
-28 l-39 0 0 51 c-1 28 -3 54 -6 57 -3 3 -6 -21 -6 -52z"/>
<path d="M1890 1393 c0 -4 5 -15 10 -23 8 -13 10 -13 10 2 0 9 -4 20 -10 23
-5 3 -10 3 -10 -2z"/>
<path d="M300 1288 c6 -8 5 -17 -3 -27 -10 -14 -10 -14 4 -4 9 7 57 14 115 16
l99 3 -100 2 c-56 1 -106 7 -113 12 -9 7 -9 7 -2 -2z"/>
<path d="M1932 1250 c0 -14 2 -19 5 -12 2 6 2 18 0 25 -3 6 -5 1 -5 -13z"/>
<path d="M794 1170 c0 -52 1 -74 3 -47 2 26 2 68 0 95 -2 26 -3 4 -3 -48z"/>
<path d="M2455 1250 c-4 -6 -67 -11 -148 -12 l-142 -2 139 -3 c77 -2 144 -8
150 -12 7 -6 11 -1 11 15 0 27 -1 28 -10 14z"/>
<path d="M1120 1211 c-6 -12 -10 -99 -10 -215 0 -164 3 -197 16 -210 13 -14
50 -16 244 -16 216 0 230 1 240 19 15 29 13 414 -2 429 -9 9 -77 12 -245 12
-219 0 -233 -1 -243 -19z m272 -103 c24 -20 28 -43 12 -73 -11 -22 -12 -39 -4
-83 5 -31 10 -57 10 -59 0 -2 -21 -3 -46 -3 -38 0 -45 3 -41 18 13 46 17 111
7 117 -17 11 -12 73 8 84 23 14 35 13 54 -1z"/>
<path d="M121 1167 c-1 -22 26 -34 42 -18 7 7 59 11 148 11 l138 0 4 -47 3
-48 2 53 2 52 -144 0 c-86 0 -147 -4 -151 -10 -10 -16 -33 -12 -38 8 -4 16 -5
16 -6 -1z"/>
<path d="M1941 1164 c0 -11 3 -14 6 -6 3 7 2 16 -1 19 -3 4 -6 -2 -5 -13z"/>
<path d="M2348 1142 c9 -10 19 -17 21 -16 6 5 -20 34 -30 34 -5 0 -1 -8 9 -18z"/>
<path d="M2008 1123 l72 -4 0 -189 0 -190 99 0 c56 0 103 -4 106 -10 10 -16
45 -12 52 6 3 8 -1 23 -10 32 -15 14 -18 14 -35 -1 -15 -13 -38 -17 -110 -17
l-92 0 0 190 0 190 -77 -2 -78 -2 73 -3z m322 -379 c0 -17 -26 -19 -36 -3 -7
12 15 31 28 23 4 -3 8 -12 8 -20z"/>
<path d="M592 1073 l-2 -52 -42 -4 -43 -4 43 -1 c38 -2 42 -5 42 -27 0 -25 -1
-25 -90 -25 -54 0 -98 5 -110 12 -15 10 -22 10 -31 1 -9 -9 -7 -11 10 -6 14 3
21 1 21 -8 0 -11 21 -13 105 -11 l105 3 0 30 0 29 104 0 c97 0 105 -1 111 -21
9 -27 16 -20 8 9 -5 21 -10 22 -114 22 l-108 0 -4 53 -3 52 -2 -52z"/>
<path d="M1932 1080 c0 -14 2 -19 5 -12 2 6 2 18 0 25 -3 6 -5 1 -5 -13z"/>
<path d="M2192 1013 l-2 -63 98 0 c60 0 102 -4 109 -11 9 -9 10 -7 6 10 -6 24
14 29 37 9 8 -7 7 -4 -3 7 -15 16 -20 18 -37 7 -12 -7 -56 -12 -109 -12 l-90
0 -4 58 -3 57 -2 -62z"/>
<path d="M801 1044 c0 -11 3 -14 6 -6 3 7 2 16 -1 19 -3 4 -6 -2 -5 -13z"/>
<path d="M1877 915 c-9 -19 -15 -35 -12 -35 7 0 37 61 33 66 -3 2 -12 -12 -21
-31z"/>
<path d="M855 900 c4 -7 -72 -10 -219 -10 l-226 0 0 -125 0 -124 -102 -4 -103
-3 105 0 105 1 3 123 3 122 222 0 222 -1 27 -39 28 -40 -208 -3 -207 -2 210
-3 209 -2 40 -37 c36 -34 35 -33 -8 16 -26 30 -59 74 -73 98 -13 24 -27 43
-30 43 -2 0 -1 -4 2 -10z"/>
<path d="M2315 880 c-3 -6 -50 -10 -106 -10 -96 0 -99 -1 -98 -22 1 -17 2 -19
6 -5 4 15 18 17 103 17 78 0 99 3 104 15 6 17 0 20 -9 5z"/>
<path d="M2356 877 c3 -10 9 -15 12 -12 3 3 0 11 -7 18 -10 9 -11 8 -5 -6z"/>
<path d="M1835 844 c-9 -15 -12 -23 -6 -20 11 7 35 46 28 46 -3 0 -12 -12 -22
-26z"/>
<path d="M2338 843 c7 -3 16 -2 19 1 4 3 -2 6 -13 5 -11 0 -14 -3 -6 -6z"/>
<path d="M1750 748 c-36 -33 -56 -56 -45 -50 19 10 124 112 115 112 -3 -1 -34
-28 -70 -62z"/>
<path d="M304 749 c-3 -6 -15 -9 -25 -6 -11 3 -17 1 -13 -4 8 -14 30 -11 44 6
7 8 10 15 7 15 -3 0 -9 -5 -13 -11z"/>
<path d="M1010 716 c0 -2 8 -10 18 -17 15 -13 16 -12 3 4 -13 16 -21 21 -21
13z"/>
<path d="M1050 686 c0 -3 14 -12 30 -21 17 -9 30 -13 30 -11 0 3 -13 12 -30
21 -16 9 -30 13 -30 11z"/>
<path d="M1650 676 c-24 -14 -25 -16 -22 -115 l3 -101 125 0 124 0 0 -93 c0
-61 -4 -97 -12 -106 -11 -10 -9 -11 5 -5 16 6 17 18 15 108 l-3 101 -122 3
-123 3 0 93 c0 86 2 95 23 109 27 20 21 21 -13 3z"/>
<path d="M163 644 c-3 -8 -2 -19 3 -24 5 -5 9 1 9 16 0 28 -3 30 -12 8z"/>
<path d="M1555 630 c-11 -5 -14 -9 -7 -9 15 -1 17 -162 3 -177 -6 -5 -1 -9 14
-9 15 0 21 4 15 9 -15 15 -13 183 3 189 6 3 8 5 2 6 -5 0 -19 -4 -30 -9z"/>
<path d="M1177 609 c5 -19 2 -20 -113 -19 -66 1 -140 1 -166 1 l-48 -1 0 -98
c0 -60 -4 -102 -11 -109 -17 -17 -3 -43 21 -43 28 0 36 26 16 49 -12 13 -16
38 -16 104 l0 87 159 0 160 0 4 -52 3 -53 2 53 c2 48 4 52 27 52 14 0 25 5 25
10 0 6 8 10 18 11 9 0 2 5 -17 10 -18 6 -36 8 -39 5 -3 -3 2 -6 11 -6 10 0 17
-4 17 -10 0 -5 -9 -10 -20 -10 -13 0 -20 7 -20 20 0 11 -4 20 -9 20 -5 0 -7
-9 -4 -21z m-297 -244 c0 -8 -9 -15 -20 -15 -11 0 -20 7 -20 15 0 8 9 15 20
15 11 0 20 -7 20 -15z"/>
<path d="M1480 610 c-23 -7 -23 -8 -3 -9 14 -1 23 -9 26 -23 4 -20 4 -20 6 4
0 14 7 29 14 31 20 9 -15 6 -43 -3z"/>
<path d="M1327 593 c18 -2 50 -2 70 0 21 2 7 4 -32 4 -38 0 -55 -2 -38 -4z"/>
<path d="M1440 556 l0 -45 -47 -4 -48 -3 53 -2 52 -2 0 50 c0 28 -2 50 -5 50
-3 0 -5 -20 -5 -44z"/>
<path d="M1242 463 c-1 -65 2 -104 9 -109 6 -3 8 -15 5 -27 -4 -15 -2 -17 6
-9 9 9 9 17 0 34 -7 13 -13 66 -15 118 l-3 95 -2 -102z"/>
<path d="M1064 380 c0 -58 1 -81 3 -52 2 28 2 76 0 105 -2 28 -3 5 -3 -53z"/>
<path d="M962 358 c-7 -7 -12 -16 -12 -22 0 -5 6 -2 13 9 8 10 19 15 25 11 20
-12 13 -34 -10 -39 l-23 -4 23 -2 c27 -1 39 23 22 44 -15 18 -22 19 -38 3z"/>
<path d="M1742 358 c-15 -15 -16 -35 -2 -43 6 -3 7 1 4 10 -4 8 -1 22 6 30 15
18 9 20 -8 3z"/>
<path d="M1047 238 c2 -5 10 -8 18 -8 8 0 16 3 18 8 3 4 -5 7 -18 7 -13 0 -21
-3 -18 -7z"/>
<path d="M1332 218 c-7 -7 -12 -16 -12 -22 0 -5 7 -1 15 10 15 19 15 19 30 0
8 -11 15 -15 15 -10 0 11 -20 34 -30 34 -3 0 -11 -5 -18 -12z"/>
<path d="M1867 219 c7 -7 15 -10 18 -7 3 3 -2 9 -12 12 -14 6 -15 5 -6 -5z"/>
<path d="M1338 173 c6 -2 18 -2 25 0 6 3 1 5 -13 5 -14 0 -19 -2 -12 -5z"/>
</g>
</svg>
