<?xml version="1.0" standalone="no"?>
<!DOCTYPE svg PUBLIC "-//W3C//DTD SVG 20010904//EN"
 "http://www.w3.org/TR/2001/REC-SVG-20010904/DTD/svg10.dtd">
<svg version="1.0" xmlns="http://www.w3.org/2000/svg"
 width="216.000000pt" height="231.000000pt" viewBox="0 0 216.000000 231.000000"
 preserveAspectRatio="xMidYMid meet">

<g transform="translate(0.000000,231.000000) scale(0.100000,-0.100000)"
fill="#FFFFFF" stroke="none">
<path d="M1065 2067 c-3 -7 -5 -49 -3 -93 2 -62 6 -79 18 -79 12 0 15 17 15
89 0 63 -4 91 -12 93 -7 3 -15 -2 -18 -10z"/>
<path d="M868 2044 c-4 -3 4 -42 16 -87 16 -57 27 -83 39 -85 22 -4 21 5 -4
100 -19 70 -33 90 -51 72z"/>
<path d="M684 1967 c-7 -20 72 -157 91 -157 22 0 18 17 -20 85 -41 74 -62 95
-71 72z"/>
<path d="M1290 1912 c-40 -8 -40 -9 -15 -110 l17 -69 42 4 c24 3 53 0 65 -7
29 -15 51 -67 44 -103 -6 -31 -55 -77 -83 -77 -17 0 -17 -4 4 -82 13 -45 27
-83 33 -85 6 -2 44 5 84 17 104 28 113 27 105 -12 -12 -62 48 -104 87 -60 22
25 21 44 -4 76 -11 14 -18 30 -15 34 3 5 44 19 91 32 84 23 85 23 84 54 -2 73
-9 80 -77 87 -67 6 -100 28 -128 81 -17 32 -18 101 -3 129 8 17 7 23 -8 34
-54 42 -237 74 -323 57z"/>
<path d="M1722 1858 c-45 -12 -75 -60 -68 -112 14 -113 175 -128 205 -20 23
84 -50 155 -137 132z m94 -42 c7 -18 -46 -116 -63 -116 -27 0 -63 24 -63 43 0
15 5 18 26 14 21 -4 29 2 50 34 26 41 41 49 50 25z"/>
<path d="M520 1837 c0 -16 111 -127 128 -127 25 0 10 26 -45 82 -56 56 -83 71
-83 45z"/>
<path d="M941 1760 c-137 -36 -238 -116 -297 -236 -40 -80 -62 -194 -50 -256
l7 -38 64 0 65 0 0 36 c0 50 45 94 95 94 50 0 95 -44 95 -94 l0 -36 70 0 70 0
0 114 c0 70 4 117 11 121 5 4 23 1 40 -5 60 -25 106 42 59 85 -18 17 -25 17
-55 6 -19 -7 -39 -9 -45 -6 -6 4 -10 55 -10 121 0 133 8 127 -119 94z"/>
<path d="M400 1676 c0 -12 132 -96 151 -96 5 0 9 8 9 18 0 11 -24 31 -66 55
-70 39 -94 45 -94 23z"/>
<path d="M325 1500 c-4 -7 -3 -15 1 -20 13 -12 156 -50 166 -44 24 15 1 32
-64 49 -40 10 -78 20 -84 22 -7 3 -15 -1 -19 -7z"/>
<path d="M789 1299 c-14 -14 -19 -27 -14 -42 22 -71 27 -67 -74 -67 -52 0 -91
-4 -91 -10 0 -24 44 -124 79 -176 21 -33 75 -99 120 -149 78 -85 131 -166 131
-200 0 -12 13 -15 60 -15 l60 0 0 115 0 115 -25 0 c-59 0 -105 47 -105 106 0
39 51 84 94 84 l36 0 0 65 0 65 -101 0 c-112 0 -106 -5 -84 67 8 23 -24 63
-50 63 -8 0 -24 -9 -36 -21z"/>
<path d="M294 1299 c-13 -22 15 -30 97 -27 70 3 84 6 87 21 3 15 -6 17 -87 17
-54 0 -93 -4 -97 -11z"/>
<path d="M1100 1094 c0 -95 0 -96 -22 -89 -52 16 -69 17 -83 5 -24 -20 -19
-67 9 -85 22 -15 27 -15 54 -1 16 8 32 12 36 9 3 -4 6 -71 6 -150 l0 -143 59
0 59 0 13 38 c15 48 40 85 104 152 89 93 143 167 179 242 57 123 58 118 -17
118 -60 0 -65 -2 -60 -20 13 -50 -40 -110 -97 -110 -57 0 -110 60 -97 110 5
19 0 20 -69 20 l-74 0 0 -96z"/>
<path d="M405 1129 c-76 -22 -95 -33 -79 -49 15 -15 168 31 172 53 4 21 -5 21
-93 -4z"/>
<path d="M468 958 c-38 -22 -68 -46 -68 -54 0 -21 16 -17 91 24 45 24 69 43
69 55 0 25 -16 20 -92 -25z"/>
<path d="M577 812 c-55 -56 -70 -82 -45 -82 17 0 128 111 128 127 0 26 -27 11
-83 -45z"/>
<path d="M894 575 c-4 -8 -4 -22 0 -30 4 -13 35 -15 185 -15 162 0 181 2 189
18 21 39 8 42 -184 42 -155 0 -186 -2 -190 -15z"/>
<path d="M930 393 c0 -109 14 -150 64 -188 39 -29 134 -28 173 1 50 38 62 71
65 179 l3 100 -152 3 -153 3 0 -98z m248 -60 c-3 -15 -17 -18 -92 -21 -49 -2
-93 1 -99 7 -22 22 7 31 99 31 86 0 95 -2 92 -17z"/>
</g>
</svg>
