<?xml version="1.0" standalone="no"?>
<!DOCTYPE svg PUBLIC "-//W3C//DTD SVG 20010904//EN"
 "http://www.w3.org/TR/2001/REC-SVG-20010904/DTD/svg10.dtd">
<svg version="1.0" xmlns="http://www.w3.org/2000/svg"
 width="229.000000pt" height="236.000000pt" viewBox="0 0 229.000000 236.000000"
 preserveAspectRatio="xMidYMid meet">

<g transform="translate(0.000000,236.000000) scale(0.100000,-0.100000)"
fill="#FFFFFF" stroke="none">
<path d="M1017 2122 c-11 -12 -17 -36 -17 -70 0 -43 -3 -52 -17 -52 -10 0 -56
-14 -103 -30 l-85 -29 -35 40 c-49 55 -69 52 -178 -26 -81 -58 -92 -70 -92
-96 0 -17 11 -45 27 -65 l26 -35 -22 -27 c-12 -15 -40 -54 -61 -86 -22 -33
-42 -61 -44 -63 -1 -2 -24 4 -50 13 -69 24 -86 9 -125 -108 -46 -138 -41 -161
41 -187 l36 -12 0 -109 0 -109 -37 -12 c-81 -26 -86 -49 -40 -187 39 -117 56
-132 125 -108 26 9 49 15 50 13 2 -2 22 -30 44 -63 21 -32 49 -71 61 -86 l21
-26 -26 -34 c-15 -20 -26 -48 -26 -65 0 -28 10 -39 92 -97 109 -79 129 -82
178 -26 l35 40 88 -30 c48 -17 94 -30 102 -30 11 0 15 -13 15 -53 0 -81 11
-87 151 -87 63 0 119 4 125 8 20 13 34 50 34 89 l0 38 103 33 102 33 15 -23
c51 -76 77 -76 187 4 109 79 116 93 75 157 -25 41 -28 52 -17 61 11 9 105 143
111 158 0 1 22 -4 48 -12 78 -24 88 -15 131 114 45 134 42 150 -32 174 l-48
16 0 110 0 110 48 16 c74 24 77 40 32 173 -24 73 -43 115 -56 121 -17 10 -63
3 -113 -16 -7 -3 -17 6 -23 19 -6 12 -33 53 -61 89 l-49 66 28 42 c16 24 29
47 29 52 0 24 -27 51 -104 107 -109 79 -136 79 -186 3 l-15 -23 -101 33 -102
33 -4 54 c-7 76 -17 81 -158 81 -101 0 -119 -3 -133 -18z m233 -90 c0 -27 6
-55 13 -64 6 -9 47 -26 90 -37 44 -12 92 -28 107 -36 49 -25 76 -19 111 25 18
23 38 39 44 36 7 -2 42 -26 78 -52 63 -46 66 -50 52 -69 -9 -11 -23 -35 -32
-52 -16 -33 -16 -33 16 -75 17 -24 52 -73 77 -110 50 -76 69 -85 129 -64 22 8
43 11 46 8 13 -15 59 -166 51 -173 -4 -4 -24 -12 -44 -18 -57 -19 -61 -27 -61
-171 0 -144 4 -152 61 -171 20 -6 40 -15 45 -18 6 -6 -15 -81 -47 -168 -4 -8
-17 -8 -52 3 -26 8 -56 12 -66 8 -10 -3 -38 -35 -62 -72 -25 -37 -60 -86 -77
-110 -32 -42 -32 -42 -16 -75 9 -17 23 -41 32 -52 14 -19 11 -23 -52 -69 -36
-26 -71 -50 -78 -52 -6 -3 -26 13 -44 36 -35 44 -62 50 -111 25 -15 -8 -63
-24 -107 -36 -43 -11 -84 -28 -90 -37 -7 -9 -13 -37 -13 -64 l0 -48 -95 0 -95
0 0 44 c0 57 -23 84 -80 97 -25 5 -75 21 -112 35 -79 32 -106 28 -139 -21 -13
-19 -28 -35 -33 -35 -10 0 -146 99 -146 106 0 3 11 22 25 42 34 49 32 72 -12
124 -20 23 -51 66 -70 95 -45 70 -62 79 -120 59 -26 -9 -48 -16 -49 -16 -4 0
-54 161 -54 175 0 7 16 16 36 19 66 13 72 28 72 172 0 71 -4 136 -9 145 -4 9
-29 22 -54 29 -25 7 -45 17 -45 23 0 13 50 177 54 177 1 0 23 -7 49 -16 58
-20 75 -11 120 59 19 29 50 72 70 95 44 52 46 75 12 124 -14 20 -25 39 -25 42
0 6 138 106 147 106 5 0 19 -16 32 -35 13 -20 34 -38 46 -41 13 -3 60 8 109
25 48 17 96 31 107 31 37 0 69 44 69 95 l0 45 95 0 95 0 0 -48z"/>
<path d="M984 1840 c-300 -78 -513 -350 -514 -653 0 -208 103 -422 263 -543
216 -164 481 -189 722 -70 158 78 272 205 338 378 30 79 31 90 31 228 0 132
-2 152 -26 218 -83 230 -270 397 -503 448 -86 19 -226 16 -311 -6z m319 -56
c205 -53 371 -207 437 -404 109 -325 -55 -662 -380 -786 -69 -26 -86 -28 -210
-28 -121 0 -142 2 -202 26 -189 72 -332 218 -389 398 -30 91 -36 245 -15 330
33 132 110 255 213 341 56 46 167 104 238 124 70 19 234 19 308 -1z"/>
<path d="M1208 1313 l-187 -187 -60 57 c-33 31 -66 57 -73 57 -19 0 -138 -122
-138 -141 0 -8 51 -65 113 -127 110 -108 116 -112 157 -112 43 0 44 1 287 242
162 161 243 249 243 263 0 26 -109 135 -135 135 -13 0 -91 -71 -207 -187z m50
-170 c-123 -123 -230 -223 -238 -223 -9 0 -57 42 -108 93 l-92 93 33 32 33 32
59 -60 c33 -33 66 -60 75 -60 8 0 101 85 205 190 l189 190 33 -32 33 -32 -222
-223z"/>
</g>
</svg>
