<?xml version="1.0" standalone="no"?>
<!DOCTYPE svg PUBLIC "-//W3C//DTD SVG 20010904//EN"
 "http://www.w3.org/TR/2001/REC-SVG-20010904/DTD/svg10.dtd">
<svg version="1.0" xmlns="http://www.w3.org/2000/svg"
 width="247.000000pt" height="235.000000pt" viewBox="0 0 247.000000 235.000000"
 preserveAspectRatio="xMidYMid meet">

<g transform="translate(0.000000,235.000000) scale(0.100000,-0.100000)"
fill="#FFFFFF" stroke="none">
<path d="M1182 2138 c-18 -18 -16 -107 3 -114 26 -10 45 16 45 60 0 37 -13 66
-30 66 -3 0 -11 -5 -18 -12z"/>
<path d="M1109 1975 c-54 -17 -117 -74 -144 -130 -11 -22 -21 -69 -23 -106 -5
-76 15 -132 67 -191 41 -47 60 -94 68 -169 5 -53 9 -62 32 -71 28 -11 185 -7
197 4 3 4 12 43 20 88 11 71 18 87 62 147 59 78 77 132 69 207 -9 90 -62 167
-142 208 -51 27 -146 32 -206 13z m174 -59 c39 -17 92 -71 106 -109 6 -16 11
-54 11 -85 0 -60 -12 -87 -77 -171 -27 -36 -38 -66 -59 -169 -4 -21 -9 -23
-67 -20 l-62 3 -7 50 c-10 69 -30 113 -76 169 -67 81 -76 166 -26 253 34 60
94 93 167 93 32 0 72 -6 90 -14z"/>
<path d="M840 1930 c0 -24 73 -75 95 -66 26 10 17 45 -17 66 -44 26 -78 26
-78 0z"/>
<path d="M1480 1928 c-38 -26 -44 -45 -19 -61 21 -13 102 37 97 61 -5 26 -40
26 -78 0z"/>
<path d="M873 1578 c-35 -21 -44 -54 -18 -64 8 -3 32 4 55 17 29 16 40 29 40
46 0 29 -31 30 -77 1z"/>
<path d="M1448 1588 c-9 -23 3 -38 44 -59 44 -23 68 -19 68 10 0 36 -101 79
-112 49z"/>
<path d="M1760 1328 c-91 -26 -145 -108 -138 -208 7 -103 75 -171 178 -178 99
-7 177 44 209 137 6 19 11 43 11 55 0 80 -61 164 -137 190 -52 18 -73 19 -123
4z m120 -66 c133 -66 87 -262 -61 -262 -108 0 -173 98 -131 194 34 75 118 105
192 68z"/>
<path d="M528 1321 c-80 -26 -148 -111 -148 -185 0 -119 87 -205 205 -206 60
0 115 29 159 83 43 53 48 142 14 207 -42 77 -152 125 -230 101z m122 -72 c97
-55 97 -194 0 -244 -42 -22 -106 -19 -147 6 -88 54 -83 183 9 239 42 26 91 25
138 -1z"/>
<path d="M1112 1250 c-20 -9 -42 -45 -42 -71 0 -5 11 -21 25 -34 22 -23 32
-25 109 -25 80 0 86 1 106 27 25 32 20 69 -12 96 -15 13 -37 17 -92 16 -39 0
-81 -4 -94 -9z m158 -65 c0 -12 -14 -15 -70 -15 -56 0 -70 3 -70 15 0 12 14
15 70 15 56 0 70 -3 70 -15z"/>
<path d="M1115 971 c-192 -87 -126 -375 86 -376 145 0 241 148 180 280 -46
100 -164 143 -266 96z m162 -61 c42 -25 63 -68 63 -126 0 -40 -5 -51 -38 -85
-66 -65 -139 -65 -204 1 -33 33 -38 44 -38 84 0 89 54 146 140 146 27 0 58 -8
77 -20z"/>
<path d="M1687 826 c-72 -30 -120 -66 -159 -120 -28 -39 -58 -99 -58 -117 0
-5 156 -9 350 -9 193 0 350 3 350 6 0 24 -60 123 -98 161 -68 67 -137 96 -242
100 -72 3 -94 0 -143 -21z m258 -65 c54 -26 85 -51 124 -103 13 -17 -1 -18
-248 -18 -293 0 -283 -3 -209 69 59 59 112 79 208 80 52 1 77 -5 125 -28z"/>
<path d="M471 826 c-62 -20 -142 -78 -178 -129 -25 -35 -63 -109 -63 -123 0
-2 158 -4 350 -4 234 0 350 3 350 10 0 22 -52 112 -85 149 -19 21 -63 53 -97
71 -55 30 -74 34 -148 37 -54 2 -101 -2 -129 -11z m234 -70 c50 -23 107 -73
126 -108 9 -17 -2 -18 -251 -18 l-261 0 21 30 c30 43 88 88 135 104 66 24 171
20 230 -8z"/>
<path d="M1108 495 c-100 -27 -183 -97 -233 -194 -14 -28 -25 -55 -25 -61 0
-7 116 -10 350 -10 193 0 350 4 350 9 0 25 -47 109 -83 148 -94 103 -231 144
-359 108z m227 -79 c48 -24 125 -96 125 -118 0 -4 -117 -8 -260 -8 -143 0
-260 3 -260 6 0 3 14 23 30 44 84 106 238 138 365 76z"/>
</g>
</svg>
